<?xml version="1.0" encoding="UTF-8"?><svg id="a" xmlns="http://www.w3.org/2000/svg" xmlns:xlink="http://www.w3.org/1999/xlink" viewBox="0 0 325.52 163.52"><defs><style>.c{fill:none;}.d{fill:#121617;}.e{clip-path:url(#b);}</style><clipPath id="b"><rect class="c" y="0" width="325.52" height="163.52"/></clipPath></defs><path class="d" d="M0,149.1c0-5.66,3.34-8.3,7.69-8.3,2.8,0,4.99,1.18,6.27,3.37,1.28-2.19,3.47-3.37,6.27-3.37,4.35,0,7.69,2.63,7.69,8.3v14.2h-4.32v-14.2c0-3.04-1.62-4.28-3.74-4.28s-3.74,1.28-3.74,4.28v14.2h-4.32v-14.2c0-3-1.62-4.28-3.74-4.28s-3.74,1.25-3.74,4.28v14.2H0v-14.2H0Z"/><path class="d" d="M51.96,152.78v-2.39c0-3.54-1.75-5.56-5.39-5.56s-5.36,2.02-5.36,5.56v2.39h10.75Zm-14.97-2.39c0-5.9,3.37-9.58,9.61-9.58s9.68,3.67,9.68,9.58v12.91h-4.32v-6.61h-10.75v6.61h-4.21v-12.91h0Z"/><polygon class="d" points="65.79 140.93 70.17 140.93 70.17 163.3 65.79 163.3 65.79 140.93 65.79 140.93"/><path class="d" d="M90.77,159.26c2.05,0,2.87-1.2,2.87-2.67s-1.03-2.7-2.84-2.7h-6.5v5.37h6.47Zm-.68-9.27c1.81,0,2.67-1.09,2.67-2.5s-.68-2.5-2.7-2.5h-5.75v5h5.78Zm-10.16-9.07h10.71c4.24,0,6.47,2.43,6.47,5.82,0,2.26-1.06,4-2.91,4.93v.07c2.46,.79,3.93,2.84,3.93,5.51,0,3.49-2.26,6.06-6.6,6.06h-11.6v-22.37h0Z"/><path class="d" d="M124.29,152.09c0-4.29-2.95-7.41-7.31-7.41s-7.31,3.12-7.31,7.41,2.95,7.45,7.31,7.45,7.31-3.15,7.31-7.45h0Zm-18.98,0c0-6.57,4.83-11.4,11.67-11.4s11.67,4.83,11.67,11.4-4.83,11.4-11.67,11.4-11.67-4.83-11.67-11.4h0Z"/><path class="d" d="M147.16,151.67c2.77,0,3.69-1.44,3.69-3.35s-.92-3.32-3.69-3.32h-5.06v6.67h5.06Zm-9.44-10.74h9.37c5.68,0,8.18,3.11,8.18,7.39,0,3.52-1.68,5.95-4.69,6.95l5.51,8.04h-5.2l-4.75-7.56h-4.04v7.56h-4.38v-22.37h0Z"/><path class="d" d="M163.75,150.01c0-5.67,3.39-9.21,9.51-9.21s9.51,3.54,9.51,9.21v13.29h-4.38v-13.29c0-3.27-1.71-5.19-5.13-5.19s-5.13,1.92-5.13,5.19v13.29h-4.38v-13.29h0Z"/><path class="d" d="M191.95,155.14v-14.21h4.32v14.21c0,3.04,1.62,4.29,3.75,4.29s3.75-1.28,3.75-4.29v-14.21h4.32v14.21c0,3,1.62,4.29,3.75,4.29s3.75-1.25,3.75-4.29v-14.21h4.32v14.21c0,5.67-3.34,8.3-7.7,8.3-2.8,0-5-1.18-6.28-3.38-1.28,2.2-3.48,3.38-6.28,3.38-4.35,0-7.7-2.63-7.7-8.3h0Z"/><path class="d" d="M246.9,152.08c0-4.3-2.96-7.43-7.33-7.43s-7.33,3.13-7.33,7.43,2.96,7.46,7.33,7.46,7.33-3.16,7.33-7.46h0Zm-19.03,0c0-6.59,4.84-11.43,11.7-11.43s11.7,4.84,11.7,11.43-4.84,11.43-11.7,11.43-11.7-4.84-11.7-11.43h0Z"/><polygon class="d" points="260.27 140.93 264.65 140.93 264.65 159.26 276.35 159.26 276.35 163.3 260.27 163.3 260.27 140.93 260.27 140.93"/><polygon class="d" points="284.67 140.93 300.88 140.93 300.88 145 289.04 145 289.04 149.92 298.9 149.92 298.9 153.89 289.04 153.89 289.04 163.3 284.67 163.3 284.67 140.93 284.67 140.93"/><polygon class="d" points="309.3 140.93 325.52 140.93 325.52 145 313.68 145 313.68 149.92 323.53 149.92 323.53 153.89 313.68 153.89 313.68 163.3 309.3 163.3 309.3 140.93 309.3 140.93"/><g class="e"><path class="d" d="M146.94,36.38C147.05,16.31,163.33,.08,183.42,.08s36.37,16.23,36.47,36.29h0V100.74h-31.51V36.57h0c0-2.75-2.23-4.98-4.97-4.98s-4.97,2.23-4.97,4.97h0V100.74h-31.51V36.38h0Z"/><path class="d" d="M146.84,100.74c-.03-16.69-.01-46.6-.04-62.99,.74-5.11-5.2-8.23-8.63-4.17-.98,1.18-1.1,2.68-1.03,4.17v9c.01,11.48,.03,42.14,.04,53.99,0,.1-.08,.18-.18,.18l-31.51,.02c-.11,0-.2-.09-.2-.2,0,0,.03-65.35,.04-64.36,.03-9.58,3.99-19.05,10.81-25.78,13.96-14.13,37.69-14.13,51.64,.02,6.8,6.73,10.75,16.19,10.77,25.76l-.1-.1c.06,0,.11,.04,.11,.1,0,.13-.21,.13-.21,0-.42-25.14-26.75-42.32-49.82-32.4-12.81,5.28-21.54,18.63-21.45,32.41,0,.87-.71,1.58-1.59,1.57l1.58-1.58,.22,64.36-1.8-1.8,31.51,.11-1.69,1.69,.13-35.99c0-8.66,.15-18.28,.23-26.99,.02-.77-.02-1.76,.17-2.52,2.18-7.85,13.16-5.61,12.25,2.52-.09,8.02-.18,18.98-.36,26.99-.2-.02-.31,36.64-.88,35.99h0Z"/></g></svg>