<?xml version="1.0" encoding="UTF-8"?><svg id="a" xmlns="http://www.w3.org/2000/svg" xmlns:xlink="http://www.w3.org/1999/xlink" viewBox="0 0 101.65 89.57"><defs><style>.c{fill:none;}.d{fill:#000001;}.e{clip-path:url(#b);}</style><clipPath id="b"><rect class="c" y="0" width="101.65" height="89.57"/></clipPath></defs><g class="e"><path class="d" d="M36.88,89.37c0-10.65-.02-37.58-.03-47.85-.06-1.45,.12-8.64-.1-9.93-.67-3.46-5.42-4.56-7.52-1.73-.87,1.05-.97,2.37-.91,3.69v7.98c.01,10.17,.03,37.35,.04,47.85v.18h-.18l-27.93,.02H.03c-.11,0,.11-57.18,.04-57.25C.1,10.1,22.95-6.49,44.95,2.49c11.89,4.77,20.13,17.03,20.05,29.84,0,0-.12-.11-.09-.1v.2h-.11C64.05,4.63,30.37-9.27,10.73,10.54,4.65,16.7,1.49,25.33,1.82,33.9c0,0-1.58,0-1.59,0l1.58-1.58,.22,57.05-1.8-1.8,27.93,.11-1.69,1.69c.07-15.73,.12-41.4,.37-56.82,.25-7.52,11.11-7.56,11.28,0-.11,8.08-.17,16.88-.36,24.92-.22,10.63-.38,21.27-.69,31.9h-.2Z"/></g><path class="d" d="M36.98,32.32C37.08,14.54,51.51,.15,69.31,.15s32.24,14.39,32.33,32.17h0v57.05h-27.93V32.91s0-.27,0-.41h0c0-2.44-1.97-4.41-4.41-4.41s-4.41,1.97-4.41,4.41h0c0,.14,0,.42,0,.42v56.47h-27.93V32.32h0Z"/></svg>